<mxfile host="app.diagrams.net" modified="2023-06-27T02:49:16.359Z" agent="Mozilla/5.0 (Windows NT 10.0; Win64; x64) AppleWebKit/537.36 (KHTML, like Gecko) Chrome/114.0.0.0 Safari/537.36 Edg/114.0.1823.58" etag="vaOaXlXxeBzdcTNWlaqA" version="21.5.0" type="device">
  <diagram name="ページ1" id="9ATg9WZ0ROGsVgX8xcEM">
    <mxGraphModel dx="880" dy="444" grid="1" gridSize="10" guides="1" tooltips="1" connect="1" arrows="1" fold="1" page="1" pageScale="1" pageWidth="827" pageHeight="1169" math="0" shadow="0">
      <root>
        <mxCell id="0" />
        <mxCell id="1" parent="0" />
        <mxCell id="3nUQ5oluFddYSUI1wG_P-12" style="edgeStyle=orthogonalEdgeStyle;rounded=0;orthogonalLoop=1;jettySize=auto;html=1;exitX=1;exitY=0.5;exitDx=0;exitDy=0;entryX=1;entryY=0.5;entryDx=0;entryDy=0;entryPerimeter=0;" parent="1" source="3nUQ5oluFddYSUI1wG_P-1" target="3nUQ5oluFddYSUI1wG_P-1" edge="1">
          <mxGeometry relative="1" as="geometry" />
        </mxCell>
        <mxCell id="EOAYhWK8mw1by3F0EiD5-15" style="edgeStyle=orthogonalEdgeStyle;rounded=0;orthogonalLoop=1;jettySize=auto;html=1;exitX=0;exitY=0.5;exitDx=0;exitDy=0;entryX=1;entryY=0.75;entryDx=0;entryDy=0;" edge="1" parent="1" source="3nUQ5oluFddYSUI1wG_P-1" target="EOAYhWK8mw1by3F0EiD5-13">
          <mxGeometry relative="1" as="geometry" />
        </mxCell>
        <mxCell id="EOAYhWK8mw1by3F0EiD5-18" style="edgeStyle=orthogonalEdgeStyle;rounded=0;orthogonalLoop=1;jettySize=auto;html=1;exitX=0.5;exitY=1;exitDx=0;exitDy=0;" edge="1" parent="1" source="3nUQ5oluFddYSUI1wG_P-1">
          <mxGeometry relative="1" as="geometry">
            <mxPoint x="410" y="330" as="targetPoint" />
          </mxGeometry>
        </mxCell>
        <mxCell id="3nUQ5oluFddYSUI1wG_P-1" value="" style="rounded=0;whiteSpace=wrap;html=1;" parent="1" vertex="1">
          <mxGeometry x="350" y="175" width="120" height="60" as="geometry" />
        </mxCell>
        <mxCell id="3nUQ5oluFddYSUI1wG_P-2" value="" style="rounded=0;whiteSpace=wrap;html=1;" parent="1" vertex="1">
          <mxGeometry x="610" y="30" width="120" height="60" as="geometry" />
        </mxCell>
        <mxCell id="3nUQ5oluFddYSUI1wG_P-3" value="" style="rounded=0;whiteSpace=wrap;html=1;" parent="1" vertex="1">
          <mxGeometry x="120" y="280" width="120" height="60" as="geometry" />
        </mxCell>
        <mxCell id="3nUQ5oluFddYSUI1wG_P-4" value="" style="rounded=0;whiteSpace=wrap;html=1;" parent="1" vertex="1">
          <mxGeometry x="350" y="330" width="120" height="60" as="geometry" />
        </mxCell>
        <mxCell id="3nUQ5oluFddYSUI1wG_P-5" value="" style="rounded=0;whiteSpace=wrap;html=1;" parent="1" vertex="1">
          <mxGeometry x="630" y="280" width="120" height="60" as="geometry" />
        </mxCell>
        <mxCell id="3nUQ5oluFddYSUI1wG_P-6" value="プレイヤー1" style="text;html=1;strokeColor=none;fillColor=none;align=center;verticalAlign=middle;whiteSpace=wrap;rounded=0;" parent="1" vertex="1">
          <mxGeometry x="375" y="190" width="70" height="30" as="geometry" />
        </mxCell>
        <mxCell id="3nUQ5oluFddYSUI1wG_P-7" value="進行役" style="text;html=1;strokeColor=none;fillColor=none;align=center;verticalAlign=middle;whiteSpace=wrap;rounded=0;" parent="1" vertex="1">
          <mxGeometry x="620" y="30" width="100" height="60" as="geometry" />
        </mxCell>
        <mxCell id="3nUQ5oluFddYSUI1wG_P-8" value="カード" style="text;html=1;strokeColor=none;fillColor=none;align=center;verticalAlign=middle;whiteSpace=wrap;rounded=0;" parent="1" vertex="1">
          <mxGeometry x="635" y="280" width="110" height="60" as="geometry" />
        </mxCell>
        <mxCell id="3nUQ5oluFddYSUI1wG_P-9" value="手札" style="text;html=1;strokeColor=none;fillColor=none;align=center;verticalAlign=middle;whiteSpace=wrap;rounded=0;" parent="1" vertex="1">
          <mxGeometry x="372.5" y="325" width="75" height="70" as="geometry" />
        </mxCell>
        <mxCell id="3nUQ5oluFddYSUI1wG_P-10" value="テーブル" style="text;html=1;strokeColor=none;fillColor=none;align=center;verticalAlign=middle;whiteSpace=wrap;rounded=0;" parent="1" vertex="1">
          <mxGeometry x="125" y="270" width="110" height="80" as="geometry" />
        </mxCell>
        <mxCell id="EOAYhWK8mw1by3F0EiD5-7" value="" style="endArrow=classic;html=1;rounded=0;exitX=0;exitY=1;exitDx=0;exitDy=0;entryX=1;entryY=0;entryDx=0;entryDy=0;" edge="1" parent="1" source="3nUQ5oluFddYSUI1wG_P-2" target="3nUQ5oluFddYSUI1wG_P-1">
          <mxGeometry width="50" height="50" relative="1" as="geometry">
            <mxPoint x="530" y="140" as="sourcePoint" />
            <mxPoint x="460" y="120" as="targetPoint" />
          </mxGeometry>
        </mxCell>
        <mxCell id="EOAYhWK8mw1by3F0EiD5-8" value="①指名する" style="text;html=1;strokeColor=none;fillColor=none;align=center;verticalAlign=middle;whiteSpace=wrap;rounded=0;" vertex="1" parent="1">
          <mxGeometry x="490" y="90" width="70" height="30" as="geometry" />
        </mxCell>
        <mxCell id="EOAYhWK8mw1by3F0EiD5-9" value="" style="rounded=0;whiteSpace=wrap;html=1;" vertex="1" parent="1">
          <mxGeometry x="120" y="75" width="120" height="60" as="geometry" />
        </mxCell>
        <mxCell id="EOAYhWK8mw1by3F0EiD5-10" value="プレイヤー2" style="text;html=1;strokeColor=none;fillColor=none;align=center;verticalAlign=middle;whiteSpace=wrap;rounded=0;" vertex="1" parent="1">
          <mxGeometry x="132.5" y="90" width="95" height="30" as="geometry" />
        </mxCell>
        <mxCell id="EOAYhWK8mw1by3F0EiD5-11" value="" style="endArrow=classic;html=1;rounded=0;exitX=0;exitY=0;exitDx=0;exitDy=0;entryX=1;entryY=1;entryDx=0;entryDy=0;" edge="1" parent="1" source="3nUQ5oluFddYSUI1wG_P-1" target="EOAYhWK8mw1by3F0EiD5-9">
          <mxGeometry width="50" height="50" relative="1" as="geometry">
            <mxPoint x="227.5" y="200" as="sourcePoint" />
            <mxPoint x="277.5" y="150" as="targetPoint" />
          </mxGeometry>
        </mxCell>
        <mxCell id="EOAYhWK8mw1by3F0EiD5-12" value="②カードを引く" style="text;html=1;strokeColor=none;fillColor=none;align=center;verticalAlign=middle;whiteSpace=wrap;rounded=0;" vertex="1" parent="1">
          <mxGeometry x="270" y="120" width="100" height="30" as="geometry" />
        </mxCell>
        <mxCell id="EOAYhWK8mw1by3F0EiD5-13" value="" style="rounded=0;whiteSpace=wrap;html=1;" vertex="1" parent="1">
          <mxGeometry x="50" y="160" width="120" height="60" as="geometry" />
        </mxCell>
        <mxCell id="EOAYhWK8mw1by3F0EiD5-14" value="プレイヤー2&lt;br&gt;手札" style="text;html=1;strokeColor=none;fillColor=none;align=center;verticalAlign=middle;whiteSpace=wrap;rounded=0;" vertex="1" parent="1">
          <mxGeometry x="72.5" y="155" width="75" height="70" as="geometry" />
        </mxCell>
        <mxCell id="EOAYhWK8mw1by3F0EiD5-17" value="③カードを引く" style="text;html=1;strokeColor=none;fillColor=none;align=center;verticalAlign=middle;whiteSpace=wrap;rounded=0;" vertex="1" parent="1">
          <mxGeometry x="220" y="175" width="90" height="30" as="geometry" />
        </mxCell>
        <mxCell id="EOAYhWK8mw1by3F0EiD5-19" value="④カードを加える" style="text;html=1;strokeColor=none;fillColor=none;align=center;verticalAlign=middle;whiteSpace=wrap;rounded=0;" vertex="1" parent="1">
          <mxGeometry x="410" y="250" width="110" height="30" as="geometry" />
        </mxCell>
        <mxCell id="EOAYhWK8mw1by3F0EiD5-21" value="⑤同じ数のカードを探す" style="text;html=1;strokeColor=none;fillColor=none;align=center;verticalAlign=middle;whiteSpace=wrap;rounded=0;" vertex="1" parent="1">
          <mxGeometry x="414" y="270" width="140" height="30" as="geometry" />
        </mxCell>
        <mxCell id="EOAYhWK8mw1by3F0EiD5-23" value="" style="endArrow=classic;html=1;rounded=0;exitX=0;exitY=1;exitDx=0;exitDy=0;entryX=1;entryY=0;entryDx=0;entryDy=0;" edge="1" parent="1" source="3nUQ5oluFddYSUI1wG_P-1" target="3nUQ5oluFddYSUI1wG_P-3">
          <mxGeometry width="50" height="50" relative="1" as="geometry">
            <mxPoint x="280" y="320" as="sourcePoint" />
            <mxPoint x="330" y="270" as="targetPoint" />
          </mxGeometry>
        </mxCell>
        <mxCell id="EOAYhWK8mw1by3F0EiD5-24" value="⑥同じ数のカード&lt;br&gt;を捨てる" style="text;html=1;strokeColor=none;fillColor=none;align=center;verticalAlign=middle;whiteSpace=wrap;rounded=0;" vertex="1" parent="1">
          <mxGeometry x="260" y="270" width="130" height="30" as="geometry" />
        </mxCell>
        <mxCell id="EOAYhWK8mw1by3F0EiD5-25" value="⑦手札を数える" style="text;html=1;strokeColor=none;fillColor=none;align=center;verticalAlign=middle;whiteSpace=wrap;rounded=0;" vertex="1" parent="1">
          <mxGeometry x="400" y="290" width="115" height="30" as="geometry" />
        </mxCell>
        <mxCell id="EOAYhWK8mw1by3F0EiD5-26" value="" style="endArrow=classic;html=1;rounded=0;entryX=0.5;entryY=1;entryDx=0;entryDy=0;" edge="1" parent="1" target="3nUQ5oluFddYSUI1wG_P-7">
          <mxGeometry width="50" height="50" relative="1" as="geometry">
            <mxPoint x="470" y="215" as="sourcePoint" />
            <mxPoint x="520" y="165" as="targetPoint" />
          </mxGeometry>
        </mxCell>
        <mxCell id="EOAYhWK8mw1by3F0EiD5-27" value="⑧手札がなければ上がり" style="text;html=1;strokeColor=none;fillColor=none;align=center;verticalAlign=middle;whiteSpace=wrap;rounded=0;" vertex="1" parent="1">
          <mxGeometry x="610" y="145" width="100" height="30" as="geometry" />
        </mxCell>
      </root>
    </mxGraphModel>
  </diagram>
</mxfile>
